<?xml version="1.0" encoding="utf-8"?>
<!-- Generator: Adobe Illustrator 24.0.1, SVG Export Plug-In . SVG Version: 6.00 Build 0)  -->
<svg version="1.1" id="圖層_1" xmlns="http://www.w3.org/2000/svg" xmlns:xlink="http://www.w3.org/1999/xlink" x="0px" y="0px"
	 viewBox="0 0 42.4 43.5" style="enable-background:new 0 0 42.4 43.5;" xml:space="preserve">
<style type="text/css">
	.st0{fill:url(#SVGID_1_);}
	.st1{opacity:0.5;fill:url(#SVGID_2_);fill-opacity:0.5;enable-background:new    ;}
	.st2{fill:url(#SVGID_3_);}
	.st3{opacity:0.2;fill:url(#SVGID_4_);enable-background:new    ;}
	.st4{opacity:0.5;fill:#94512A;enable-background:new    ;}
	.st5{fill:#E99855;}
	.st6{fill:url(#SVGID_5_);}
	.st7{opacity:0.7;fill:url(#SVGID_6_);enable-background:new    ;}
	.st8{fill:#FFFFFF;}
	.st9{fill:#94512A;}
	.st10{fill:url(#SVGID_7_);}
	.st11{fill:url(#SVGID_8_);}
	.st12{fill:url(#SVGID_9_);}
	.st13{fill:url(#SVGID_10_);}
	.st14{fill:url(#SVGID_11_);}
	.st15{fill:url(#SVGID_12_);}
	.st16{fill:url(#SVGID_13_);}
	.st17{fill:url(#SVGID_14_);}
	.st18{fill:url(#SVGID_15_);}
	.st19{fill:url(#SVGID_16_);}
</style>
<g>
	<g>
		<g>
			
				<linearGradient id="SVGID_1_" gradientUnits="userSpaceOnUse" x1="47.0123" y1="224.8029" x2="11.4025" y2="299.0342" gradientTransform="matrix(1 0 0 1 0 -240)">
				<stop  offset="0" style="stop-color:#FFC649"/>
				<stop  offset="0" style="stop-color:#FFC848"/>
				<stop  offset="0" style="stop-color:#FFCF45"/>
				<stop  offset="0" style="stop-color:#FFD243"/>
				<stop  offset="1" style="stop-color:#CD571B"/>
			</linearGradient>
			<path class="st0" d="M42.8,23.7c0.6-4.2-0.1-8.6-2.2-12.2c-0.7-1.2-1.5-2.3-2.4-3.3C37,7,35.8,6,34.7,4.9
				c3.2,2.8,5.3,6.9,5.8,11.1c0.6,4.3-0.2,8.8-2.2,12.6s-4.9,7.1-8.4,9.3c-3.6,2.3-7.8,3.6-12.1,3.4c-3.9-0.1-7.7-1.5-10.8-3.8
				c-0.2-0.1-0.5-0.4-0.6-0.6c1.6,1.3,3.1,2.8,4.8,3.9c1.6,1,3.4,1.7,5.3,2.1c4,1,8.4,0.5,12.2-1.1c3.9-1.6,7.2-4.3,9.8-7.6
				C40.7,31.2,42.2,27.6,42.8,23.7z"/>
			
				<linearGradient id="SVGID_2_" gradientUnits="userSpaceOnUse" x1="25.9631" y1="269.1454" x2="16.7634" y2="288.323" gradientTransform="matrix(1 0 0 1 0 -240)">
				<stop  offset="0" style="stop-color:#E08C3C"/>
				<stop  offset="1" style="stop-color:#FFD06F"/>
			</linearGradient>
			<path class="st1" d="M28.6,41.9c1.3-0.6,2.7-1.2,3.8-2.1l-1.5-1.6c-0.1,0.1-0.4,0.2-0.5,0.4c-3.7,2.3-8,3.6-12.2,3.4
				c-3.1-0.1-6.1-1-8.8-2.4c0.5,0.5,1.1,0.9,1.7,1.2c1.6,1,3.4,1.7,5.3,2.1C20.4,44,24.7,43.5,28.6,41.9z"/>
			<g>
				
					<linearGradient id="SVGID_3_" gradientUnits="userSpaceOnUse" x1="9.3582" y1="316.5255" x2="33.8053" y2="194.0233" gradientTransform="matrix(1 0 0 1 0 -240)">
					<stop  offset="0" style="stop-color:#F5942A"/>
					<stop  offset="1" style="stop-color:#F5D85D"/>
				</linearGradient>
				<path class="st2" d="M24.7,0.6C35.6,1.7,42.5,11.8,40.2,23c-2.3,11.3-13.1,19.5-24,18.2C5.3,40.2-1.7,30.1,0.7,18.9
					S13.8-0.6,24.7,0.6z"/>
			</g>
			
				<linearGradient id="SVGID_4_" gradientUnits="userSpaceOnUse" x1="14.4693" y1="290.6693" x2="30.4495" y2="210.5945" gradientTransform="matrix(1 0 0 1 0 -240)">
				<stop  offset="0" style="stop-color:#E08C3C"/>
				<stop  offset="1" style="stop-color:#FFD06F"/>
			</linearGradient>
			<path class="st3" d="M24.5,1.1C14,0,3.7,7.9,1.4,18.8c-0.1,0.9-0.2,1.7-0.4,2.4c4.4,3.2,9.8,5.3,15.7,5.9c8,0.9,15.9-1.1,22.9-5
				C41.4,11.5,34.8,2.1,24.5,1.1z"/>
			<path class="st4" d="M17.8,40.3c-9.7-1-16.8-9.4-14.6-20S15.5,2.2,25.6,3.2c8.6,0.9,13.6,8.1,14,16c0.4-9.4-6-17.4-15.4-18.4
				c-10.6-1-21,6.9-23.3,17.8C-1.3,29.5,5.3,39.2,16,40.3c1,0.1,2,0.1,2.8,0.1C18.5,40.4,18.2,40.3,17.8,40.3z"/>
			<path class="st5" d="M23.1,2.8c0.6,0,1.2,0,1.8,0.1c4.5,0.5,8.4,2.7,11.1,6.2c1.3,1.8,2.3,3.9,2.8,6.2c0.5,2.4,0.5,4.9,0,7.5
				c-1,4.7-3.6,8.9-7.2,12c-3.6,3.1-8.2,4.8-12.6,4.8c-0.6,0-1.2,0-1.8-0.1c-4.5-0.5-8.4-2.7-11.1-6.2c-1.3-1.8-2.3-3.9-2.8-6.2
				c-0.5-2.4-0.5-4.9,0-7.5c0.9-4.7,3.4-8.9,7.2-12C14.1,4.4,18.5,2.8,23.1,2.8L23.1,2.8 M23.1,1C13,1,3.6,8.8,1.4,19.2
				c-2.3,11,4.5,20.1,15.3,21.2c0.7,0.1,1.3,0.1,2.1,0.1c10,0,18.7-7.5,20.8-17.9C41.9,11.5,35.8,2.2,25,1.1C24.4,1.1,23.7,1,23.1,1
				L23.1,1z"/>
			
				<linearGradient id="SVGID_5_" gradientUnits="userSpaceOnUse" x1="28.4538" y1="229.3965" x2="7.5303" y2="311.8944" gradientTransform="matrix(1 0 0 1 0 -240)">
				<stop  offset="0.199" style="stop-color:#FFDE43"/>
				<stop  offset="0.5646" style="stop-color:#FFD23E"/>
				<stop  offset="1" style="stop-color:#FFBD37"/>
			</linearGradient>
			<path class="st6" d="M22.6,2.2c0.6,0,1.2,0,1.8,0.1C29.1,2.8,33,5,35.7,8.7c1.3,1.8,2.3,4,2.8,6.4s0.5,5,0,7.6
				c-1,4.7-3.6,8.9-7.3,12.1c-3.8,3.1-8.3,4.8-12.9,4.8c-0.6,0-1.2,0-1.8-0.1c-4.7-0.5-8.6-2.7-11.3-6.4c-1.3-1.8-2.3-4-2.8-6.4
				s-0.5-5,0-7.6C3.4,14.4,6,10.2,9.7,7C13.5,3.9,18.1,2.2,22.6,2.2L22.6,2.2 M22.6,0.5C12.4,0.5,2.9,8.4,0.7,18.9
				c-2.3,11.3,4.7,21.3,15.5,22.4c0.7,0.1,1.3,0.1,2.1,0.1c10.2,0,19.7-7.8,21.9-18.4c2.3-11.3-4.7-21.3-15.5-22.4
				C23.9,0.5,23.3,0.5,22.6,0.5L22.6,0.5z"/>
			
				<linearGradient id="SVGID_6_" gradientUnits="userSpaceOnUse" x1="27.4117" y1="233.3233" x2="13.7869" y2="287.0439" gradientTransform="matrix(1 0 0 1 0 -240)">
				<stop  offset="1.809950e-02" style="stop-color:#FFFFA0"/>
				<stop  offset="0.9762" style="stop-color:#FFEB6A"/>
			</linearGradient>
			<path class="st7" d="M24.5,0.6c-0.7-0.1-1.3-0.1-2.1-0.1C12.3,0.5,2.8,8.4,0.5,18.9c-0.2,1-0.4,1.8-0.4,2.8
				c0.6,0.4,1.2,0.7,1.8,1.1c0-1.2,0.1-2.3,0.4-3.6c1-4.7,3.6-8.9,7.3-12.1c3.8-3.1,8.3-4.8,12.9-4.8l0,0c0.6,0,1.2,0,1.8,0.1
				C29.1,3,33,5.2,35.7,8.8c1.3,1.8,2.3,4,2.8,6.4s0.5,5,0,7.6c0,0.2-0.1,0.4-0.1,0.6c0.7-0.4,1.3-0.7,2.1-1.1
				C42,11.3,35.2,1.7,24.5,0.6z"/>
			<polygon class="st8" points="7.9,5.4 4.8,4.7 7.6,6.3 7.9,7 7.2,10.1 8.7,7.2 9.4,6.9 12.5,7.6 9.7,6.1 9.4,5.4 10.1,2.4 
				8.6,5.2 			"/>
			<polygon class="st8" points="34,30.6 28.7,29.3 33.5,31.9 34.1,33.2 32.7,38.6 35.3,33.7 36.5,33.1 41.8,34.4 37,31.9 36.5,30.5 
				37.8,25.1 35.2,30 			"/>
		</g>
	</g>
</g>
<g>
	<g>
		<path class="st9" d="M14.1,18.3l15.6,2.5l1.9-4L16,14.3L14.1,18.3z M19.2,16.7l7.6,1.2l-0.3,0.5l-7.6-1.2L19.2,16.7z"/>
		<path class="st9" d="M30.2,21.4l-16.9-2.7l-3.5,7.5l16.9,2.7L30.2,21.4z M23.4,26.4L14.7,25l0.3-0.5l8.7,1.4L23.4,26.4z
			 M24.2,24.7l-8.7-1.4l0.2-0.5l8.7,1.4L24.2,24.7z M25,23l-8.7-1.4l0.3-0.5l8.7,1.4L25,23z"/>
		<path class="st9" d="M24.9,28.8L19.6,28c0.2,0.2,0.3,0.4,0.5,0.7c0.2,0.2,0.4,0.5,0.5,0.7c0.2,0.2,0.3,0.5,0.5,0.7
			c0.1,0.2,0.2,0.4,0.3,0.6l5.7,0.9c-0.4-0.5-0.7-1-1.1-1.4C25.6,29.6,25.3,29.2,24.9,28.8z"/>
		<path class="st9" d="M10.6,27c-0.3,0.1-0.7,0.3-1.1,0.4c-0.4,0.1-0.8,0.3-1.2,0.4c-0.4,0.1-0.8,0.3-1.2,0.4l5.6,0.9
			c0.2-0.1,0.5-0.2,0.9-0.3c0.4-0.1,0.7-0.3,1.1-0.4c0.4-0.2,0.7-0.3,1.1-0.5c0.3-0.2,0.6-0.3,0.9-0.4l-5.2-0.8
			C11.2,26.7,10.9,26.9,10.6,27z"/>
		<polygon class="st9" points="18.7,14 29.5,15.7 29.2,16.3 33.4,16.9 34.7,14.1 30.7,13.4 34.3,11.3 30.2,10.7 29.1,13.2 
			27.3,12.9 28.4,10.3 24.2,9.6 23.1,12.2 21.4,11.9 22.3,9.4 18.5,8.8 19.9,11.7 15.6,11 14.3,13.8 18.5,14.5 		"/>
	</g>
	<g>
		
			<linearGradient id="SVGID_7_" gradientUnits="userSpaceOnUse" x1="12.8902" y1="18.7948" x2="30.4326" y2="18.7948" gradientTransform="matrix(0.9974 -7.203636e-02 7.203636e-02 0.9974 -1.2004 0.4134)">
			<stop  offset="0" style="stop-color:#FFC46D"/>
			<stop  offset="9.501130e-02" style="stop-color:#FFD067"/>
			<stop  offset="0.914" style="stop-color:#CD553F"/>
		</linearGradient>
		<path class="st10" d="M13,18.3l15.6,2.5l1.9-4l-15.6-2.5L13,18.3z M18.1,16.7l7.6,1.2l-0.3,0.5l-7.6-1.2L18.1,16.7z"/>
		
			<linearGradient id="SVGID_8_" gradientUnits="userSpaceOnUse" x1="8.0117" y1="24.7137" x2="28.7292" y2="24.7137" gradientTransform="matrix(0.9974 -7.203636e-02 7.203636e-02 0.9974 -1.2004 0.4134)">
			<stop  offset="0" style="stop-color:#FFC46D"/>
			<stop  offset="9.501130e-02" style="stop-color:#FFD067"/>
			<stop  offset="0.914" style="stop-color:#CD553F"/>
		</linearGradient>
		<path class="st11" d="M29.1,21.4l-16.9-2.7l-3.5,7.5l16.9,2.7L29.1,21.4z M22.3,26.4L13.6,25l0.3-0.5l8.7,1.4L22.3,26.4z
			 M23.1,24.7l-8.7-1.4l0.2-0.5l8.7,1.4L23.1,24.7z M23.9,23l-8.7-1.4l0.3-0.5l8.7,1.4L23.9,23z"/>
		
			<linearGradient id="SVGID_9_" gradientUnits="userSpaceOnUse" x1="17.6866" y1="30.9206" x2="24.934" y2="30.9206" gradientTransform="matrix(0.9974 -7.203636e-02 7.203636e-02 0.9974 -1.2004 0.4134)">
			<stop  offset="0" style="stop-color:#FFC46D"/>
			<stop  offset="9.501130e-02" style="stop-color:#FFD067"/>
			<stop  offset="0.914" style="stop-color:#CD553F"/>
		</linearGradient>
		<path class="st12" d="M23.8,28.8L18.5,28c0.2,0.2,0.3,0.4,0.5,0.7c0.2,0.2,0.4,0.5,0.5,0.7c0.2,0.2,0.3,0.5,0.5,0.7
			c0.1,0.2,0.2,0.4,0.3,0.6l5.7,0.9c-0.4-0.5-0.7-1-1.1-1.4C24.6,29.6,24.2,29.2,23.8,28.8z"/>
		
			<linearGradient id="SVGID_10_" gradientUnits="userSpaceOnUse" x1="5.1826" y1="28.283" x2="14.772" y2="28.283" gradientTransform="matrix(0.9974 -7.203636e-02 7.203636e-02 0.9974 -1.2004 0.4134)">
			<stop  offset="0" style="stop-color:#FFC46D"/>
			<stop  offset="9.501130e-02" style="stop-color:#FFD067"/>
			<stop  offset="0.914" style="stop-color:#CD553F"/>
		</linearGradient>
		<path class="st13" d="M9.5,27c-0.3,0.1-0.7,0.3-1.1,0.4c-0.4,0.1-0.8,0.3-1.2,0.4C6.8,28,6.4,28.1,6,28.2l5.6,0.9
			c0.2-0.1,0.5-0.2,0.9-0.3c0.4-0.1,0.7-0.3,1.1-0.4c0.4-0.2,0.7-0.3,1.1-0.5c0.3-0.2,0.6-0.3,0.9-0.4l-5.2-0.8
			C10.1,26.7,9.8,26.9,9.5,27z"/>
		
			<linearGradient id="SVGID_11_" gradientUnits="userSpaceOnUse" x1="13.4153" y1="14.3098" x2="33.7418" y2="14.3098" gradientTransform="matrix(0.9974 -7.203636e-02 7.203636e-02 0.9974 -1.2004 0.4134)">
			<stop  offset="0" style="stop-color:#FFC46D"/>
			<stop  offset="9.501130e-02" style="stop-color:#FFD067"/>
			<stop  offset="0.914" style="stop-color:#CD553F"/>
		</linearGradient>
		<polygon class="st14" points="17.6,14 28.4,15.7 28.2,16.3 32.3,16.9 33.6,14.1 29.6,13.4 33.2,11.3 29.1,10.7 28,13.2 26.2,12.9 
			27.3,10.3 23.1,9.6 22,12.2 20.3,11.9 21.2,9.4 17.4,8.8 18.8,11.7 14.6,11 13.2,13.8 17.4,14.5 		"/>
	</g>
	<g>
		
			<linearGradient id="SVGID_12_" gradientUnits="userSpaceOnUse" x1="12.739" y1="18.0739" x2="30.2814" y2="18.0739" gradientTransform="matrix(0.9974 -7.203636e-02 7.203636e-02 0.9974 -1.2004 0.4134)">
			<stop  offset="1.809950e-02" style="stop-color:#FFFFA0"/>
			<stop  offset="0.9762" style="stop-color:#FFEB6A"/>
		</linearGradient>
		<path class="st15" d="M12.8,17.6l15.6,2.5l1.9-4l-15.6-2.5L12.8,17.6z M17.9,16l7.6,1.2l-0.3,0.5l-7.6-1.2L17.9,16z"/>
		
			<linearGradient id="SVGID_13_" gradientUnits="userSpaceOnUse" x1="7.8605" y1="23.9927" x2="28.578" y2="23.9927" gradientTransform="matrix(0.9974 -7.203636e-02 7.203636e-02 0.9974 -1.2004 0.4134)">
			<stop  offset="1.809950e-02" style="stop-color:#FFFFA0"/>
			<stop  offset="0.9762" style="stop-color:#FFEB6A"/>
		</linearGradient>
		<path class="st16" d="M28.9,20.7L12,17.9l-3.5,7.5l16.9,2.7L28.9,20.7z M22.1,25.7l-8.7-1.4l0.3-0.5l8.7,1.4L22.1,25.7z M22.9,24
			l-8.7-1.4l0.2-0.5l8.7,1.4L22.9,24z M23.7,22.3L15,20.9l0.3-0.5l8.7,1.4L23.7,22.3z"/>
		
			<linearGradient id="SVGID_14_" gradientUnits="userSpaceOnUse" x1="17.5354" y1="30.1997" x2="24.7828" y2="30.1997" gradientTransform="matrix(0.9974 -7.203636e-02 7.203636e-02 0.9974 -1.2004 0.4134)">
			<stop  offset="1.809950e-02" style="stop-color:#FFFFA0"/>
			<stop  offset="0.9762" style="stop-color:#FFEB6A"/>
		</linearGradient>
		<path class="st17" d="M23.6,28.1l-5.3-0.9c0.2,0.2,0.3,0.4,0.5,0.7c0.2,0.2,0.4,0.5,0.5,0.7c0.2,0.2,0.3,0.5,0.5,0.7
			c0.1,0.2,0.2,0.4,0.3,0.6l5.7,0.9c-0.4-0.5-0.7-1-1.1-1.4C24.4,28.9,24,28.5,23.6,28.1z"/>
		
			<linearGradient id="SVGID_15_" gradientUnits="userSpaceOnUse" x1="5.0314" y1="27.5621" x2="14.6208" y2="27.5621" gradientTransform="matrix(0.9974 -7.203636e-02 7.203636e-02 0.9974 -1.2004 0.4134)">
			<stop  offset="1.809950e-02" style="stop-color:#FFFFA0"/>
			<stop  offset="0.9762" style="stop-color:#FFEB6A"/>
		</linearGradient>
		<path class="st18" d="M9.3,26.3c-0.3,0.1-0.7,0.3-1.1,0.4C7.8,26.8,7.4,27,7,27.1c-0.4,0.1-0.8,0.3-1.2,0.4l5.6,0.9
			c0.2-0.1,0.5-0.2,0.9-0.3c0.4-0.1,0.7-0.3,1.1-0.4c0.4-0.2,0.7-0.3,1.1-0.5c0.3-0.2,0.6-0.3,0.9-0.4l-5.2-0.8
			C9.9,26,9.6,26.2,9.3,26.3z"/>
		
			<linearGradient id="SVGID_16_" gradientUnits="userSpaceOnUse" x1="13.2641" y1="13.5889" x2="33.5906" y2="13.5889" gradientTransform="matrix(0.9974 -7.203636e-02 7.203636e-02 0.9974 -1.2004 0.4134)">
			<stop  offset="1.809950e-02" style="stop-color:#FFFFA0"/>
			<stop  offset="0.9762" style="stop-color:#FFEB6A"/>
		</linearGradient>
		<polygon class="st19" points="17.4,13.3 28.2,15 28,15.6 32.1,16.2 33.4,13.4 29.4,12.7 33,10.6 28.9,10 27.8,12.5 26,12.2 
			27.1,9.6 22.9,8.9 21.8,11.5 20.1,11.2 21,8.7 17.2,8.1 18.6,11 14.3,10.3 13,13.1 17.2,13.8 		"/>
	</g>
</g>
</svg>
